<svg xmlns="http://www.w3.org/2000/svg" viewBox="0 0 64 64" role="img" aria-labelledby="title">
  <title id="title">Neptune favicon</title>
  <defs>
    <radialGradient id="planetFill" cx="30%" cy="28%" r="75%">
      <stop offset="0%" stop-color="#b9f0ff"/>
      <stop offset="55%" stop-color="#68bff4"/>
      <stop offset="100%" stop-color="#245ea8"/>
    </radialGradient>
    <clipPath id="planetClip">
      <circle cx="32" cy="32" r="22"/>
    </clipPath>
  </defs>

  <circle cx="32" cy="32" r="22" fill="url(#planetFill)"/>

  <g clip-path="url(#planetClip)" opacity="0.95">
    <path d="M10 21c7-4 15-4 23-2s14 2 21-1v5c-7 3-14 3-22 1s-15-2-22 2Z" fill="#9fe7ff"/>
    <path d="M9 28c8-3 16-3 24-1s14 2 22-1v5c-8 3-15 3-23 1s-15-2-23 1Z" fill="#7ccdf7"/>
    <path d="M9 35c8-3 16-3 24-1s14 2 22-1v5c-8 3-15 3-23 1s-15-2-23 1Z" fill="#4f9fe0"/>
    <path d="M10 42c7-4 15-4 23-2s14 2 21-1v5c-7 3-14 3-22 1s-15-2-22 2Z" fill="#3479c3"/>
    <ellipse cx="40" cy="35" rx="5.5" ry="4.2" fill="#1e4789" opacity="0.55"/>
  </g>

  <circle cx="32" cy="32" r="22" fill="none" stroke="#d9f8ff" stroke-opacity="0.45" stroke-width="1.2"/>
</svg>
